<svg version="1.1" id="Layer_1" xmlns="http://www.w3.org/2000/svg" xmlns:xlink="http://www.w3.org/1999/xlink" x="0px" y="0px"
	 width="100%" viewBox="0 0 236 342" enable-background="new 0 0 236 342" xml:space="preserve">
<path fill="none" opacity="1.000000" stroke="#000000" stroke-linecap="round" stroke-linejoin="round" stroke-width="6.000000"
	d="
M49.500000,318.500000 
	C49.500000,269.166534 49.500000,219.833054 49.500000,169.875000 
	C102.917580,169.875000 156.084381,169.875000 209.500000,169.875000 
	C209.500000,219.999725 209.500000,269.249847 209.500000,318.500000 
"/>
<path fill="none" opacity="1.000000" stroke="#000000" stroke-linecap="round" stroke-linejoin="round" stroke-width="6.000000"
	d="
M32.500000,320.000000 
	C41.504158,319.778961 50.605785,319.061005 59.483738,319.411682 
	C68.990311,319.787170 78.532822,320.120514 87.992973,319.795502 
	C96.824203,319.492126 105.784813,319.473145 114.490433,319.609741 
	C122.763039,319.739532 131.137558,318.686066 139.528641,319.780365 
	C147.394867,320.806183 155.500000,320.000000 163.500000,320.000000 
	C171.666672,320.000000 179.833328,320.000000 188.000000,320.000000 
	C189.500000,320.000000 191.031006,320.196167 192.494446,319.964874 
	C197.858948,319.117096 199.486023,317.124084 199.492813,311.500000 
	C199.512909,294.833374 199.500000,278.166656 199.500000,261.500000 
	C199.500000,236.333328 199.500000,211.166672 199.500000,186.000000 
	C199.500000,184.332443 199.500000,182.664886 199.500000,180.500000 
	C152.752991,180.500000 106.252388,180.500000 59.500000,180.500000 
	C59.500000,226.499695 59.500000,272.499847 59.500000,318.500000 
"/>
<path fill="none" opacity="1.000000" stroke="#000000" stroke-linecap="round" stroke-linejoin="round" stroke-width="5.000000"
	d="
M123.500000,35.500000 
	C123.500000,32.833332 123.500000,30.166666 123.500000,27.500000 
	C123.500000,23.568558 121.181107,20.406429 118.000000,19.999998 
	C115.018654,19.619089 112.559479,21.992102 111.515282,26.503538 
	C109.627960,34.657707 107.696220,42.805553 106.034775,51.007046 
	C103.965584,61.221252 95.596069,65.557686 86.543358,60.423553 
	C78.668449,55.957401 71.178497,50.814377 63.490799,46.014736 
	C61.792343,44.954342 59.850956,44.237831 58.026741,45.537533 
	C56.021923,46.965904 55.563286,49.216915 56.026711,51.494564 
	C58.301174,62.673210 60.338623,73.915359 63.103725,84.974068 
	C65.318428,93.831497 65.862694,103.091446 69.935493,111.531128 
	C74.283356,120.540833 80.948448,125.422661 90.950142,127.269966 
	C97.046242,128.395905 103.083298,127.000404 109.000000,128.500000 
"/>
<path fill="none" opacity="1.000000" stroke="#000000" stroke-linecap="round" stroke-linejoin="round" stroke-width="5.000000"
	d="
M198.000000,253.000000 
	C193.680450,250.380096 189.011215,249.841507 183.998749,249.920532 
	C169.668976,250.146423 155.327133,250.249283 141.002655,249.892975 
	C134.022690,249.719360 129.574417,254.381592 129.535416,260.500214 
	C129.431335,276.832916 129.518021,293.166687 129.484787,309.499969 
	C129.478149,312.762787 131.611115,315.376556 132.000000,318.500000 
"/>
<path fill="none" opacity="1.000000" stroke="#000000" stroke-linecap="round" stroke-linejoin="round" stroke-width="5.000000"
	d="
M108.000000,110.500000 
	C105.153427,116.411163 108.093208,121.471527 111.190781,125.865509 
	C113.154053,128.650452 117.600319,127.523407 120.457611,126.826256 
	C134.180679,123.477974 146.151718,116.649727 156.508041,107.008636 
	C159.789948,103.953392 162.832520,100.464119 166.579559,98.127594 
	C171.985260,94.756790 178.158401,94.197418 184.512192,95.437531 
	C187.272888,95.976349 190.168243,95.990685 192.999619,95.962379 
	C197.044098,95.921951 200.366501,93.319153 201.000000,90.000000 
	C201.830582,85.648094 200.574295,82.894859 195.972748,81.068665 
	C189.413208,78.465385 182.694794,76.246498 175.977219,74.070305 
	C174.565598,73.613007 172.933105,73.921890 171.471161,74.959358 
	C168.056305,77.382690 164.396103,79.344292 160.558762,81.126518 
	C155.444473,83.501808 151.219986,83.221741 146.975067,79.528664 
	C142.662308,75.776581 137.794617,74.822334 132.500000,77.500000 
"/>
<path fill="none" opacity="1.000000" stroke="#000000" stroke-linecap="round" stroke-linejoin="round" stroke-width="6.000000"
	d="
M99.500000,181.500000 
	C99.500000,215.500000 99.500000,249.500000 99.500000,283.500000 
"/>
<path fill="none" opacity="1.000000" stroke="#000000" stroke-linecap="round" stroke-linejoin="round" stroke-width="6.000000"
	d="
M109.500000,181.500000 
	C109.500000,215.500000 109.500000,249.500000 109.500000,283.500000 
"/>
<path fill="none" opacity="1.000000" stroke="#000000" stroke-linecap="round" stroke-linejoin="round" stroke-width="5.000000"
	d="
M146.000000,78.000000 
	C146.889313,76.092667 147.027023,74.082748 147.021454,71.999939 
	C146.981400,57.000050 147.005325,41.999996 146.996552,27.000002 
	C146.994125,22.846272 144.738541,20.000002 141.500000,20.000000 
	C138.313675,19.999998 135.516769,23.255224 135.502182,27.000008 
	C135.491165,29.833300 135.500000,32.666668 135.500000,35.500000 
"/>
<path fill="none" opacity="1.000000" stroke="#000000" stroke-linecap="round" stroke-linejoin="round" stroke-width="5.000000"
	d="
M104.000000,77.500000 
	C105.081871,81.395424 104.168289,85.333298 104.678001,90.000000 
	C95.180428,90.000000 86.088676,90.081757 77.001678,89.910851 
	C75.656288,89.885544 74.333336,88.666664 73.000000,88.000000 
"/>
<path fill="none" opacity="1.000000" stroke="#000000" stroke-linecap="round" stroke-linejoin="round" stroke-width="6.000000"
	d="
M111.000000,127.000000 
	C108.973114,128.208603 109.513695,130.207199 109.510681,132.000015 
	C109.490242,144.166656 109.500000,156.333328 109.500000,168.500000 
"/>
<path fill="none" opacity="1.000000" stroke="#000000" stroke-linecap="round" stroke-linejoin="round" stroke-width="6.000000"
	d="
M99.500000,129.500000 
	C99.500000,142.500000 99.500000,155.500000 99.500000,168.500000 
"/>
<path fill="none" opacity="1.000000" stroke="#000000" stroke-linecap="round" stroke-linejoin="round" stroke-width="6.000000"
	d="
M114.500000,318.500000 
	C114.500000,307.666016 114.500000,296.832062 114.500000,285.560699 
	C107.793068,284.153564 101.279961,284.498230 94.500000,285.370117 
	C94.500000,296.498749 94.500000,307.499390 94.500000,318.500000 
"/>
<path fill="none" opacity="1.000000" stroke="#000000" stroke-linecap="round" stroke-linejoin="round" stroke-width="5.000000"
	d="
M130.500000,77.500000 
	C128.898071,75.198341 126.499489,74.905785 124.000381,75.009216 
	C109.125832,75.624802 94.395821,76.911850 80.460312,82.907761 
	C77.902649,84.008224 75.293808,84.777344 73.514938,87.011894 
	C71.416901,89.647377 67.998474,88.551483 65.500000,90.000000 
"/>
<path fill="none" opacity="1.000000" stroke="#000000" stroke-linecap="round" stroke-linejoin="round" stroke-width="5.000000"
	d="
M115.000008,76.500000 
	C115.666672,79.500000 116.271126,82.515594 117.018059,85.495476 
	C117.720100,88.296310 119.730225,89.844681 122.502037,89.941772 
	C125.328537,90.040771 126.380257,88.208900 127.124825,85.534752 
	C127.909348,82.717125 128.638977,79.652817 131.143219,77.365913 
	C134.855026,78.655098 133.780685,82.477196 134.889969,85.047485 
	C135.903244,87.395287 136.219498,89.946083 139.500046,89.997116 
	C142.884369,90.049774 144.641281,87.900436 144.871658,84.989838 
	C145.036255,82.910347 147.245438,82.031509 147.000000,80.000000 
"/>
<path fill="none" opacity="1.000000" stroke="#000000" stroke-linecap="round" stroke-linejoin="round" stroke-width="5.000000"
	d="
M198.500000,318.000000 
	C200.099945,319.866852 202.216843,320.045380 204.500229,320.024689 
	C211.832947,319.958313 219.166672,320.000000 226.500000,320.000000 
"/>
<path fill="none" opacity="1.000000" stroke="#000000" stroke-linecap="round" stroke-linejoin="round" stroke-width="3.000000"
	d="
M160.000000,82.500000 
	C163.620377,87.851822 168.660736,87.523743 175.001572,86.268135 
	C172.427856,83.106140 171.181732,80.067375 170.000000,77.000000 
"/>
<path fill="none" opacity="1.000000" stroke="#000000" stroke-linecap="round" stroke-linejoin="round" stroke-width="5.000000"
	d="
M135.500000,23.000000 
	C131.733368,19.848236 127.920166,18.838907 124.000000,22.750000 
"/>
</svg>