<svg version="1.1" id="Layer_1" xmlns="http://www.w3.org/2000/svg" xmlns:xlink="http://www.w3.org/1999/xlink" x="0px" y="0px"
	 width="100%" viewBox="0 0 624 560" enable-background="new 0 0 624 560" xml:space="preserve">
<path fill="#000000" opacity="1.000000" stroke="none" 
	d="
M154.390808,339.407959 
	C149.481613,343.428833 145.027176,347.479187 140.158371,350.947968 
	C128.191086,359.474091 116.758667,359.754089 104.358162,351.650665 
	C83.973274,338.329620 72.814499,319.011383 67.676544,295.502319 
	C60.803711,264.055176 74.220520,240.487808 95.959053,219.966812 
	C100.671158,215.518600 105.872208,211.585678 110.881180,207.455597 
	C114.228401,204.695694 115.330437,201.847473 113.150246,197.488297 
	C104.736137,180.664749 95.665947,164.133636 89.127907,146.431274 
	C87.167938,141.124481 85.422226,135.728012 83.823479,130.300415 
	C79.346825,115.102592 90.475296,102.545609 106.156105,105.020210 
	C115.741829,106.532936 124.271294,110.529625 131.990494,116.299500 
	C140.128265,122.382233 148.258896,128.477966 156.271011,134.724075 
	C161.276291,138.626129 166.128174,138.569839 171.512848,135.467056 
	C186.086914,127.069153 200.727417,118.783310 215.436142,110.623474 
	C224.324142,105.692764 233.796921,103.108360 244.147064,103.534355 
	C259.293793,104.157761 267.864166,116.146400 262.641266,130.404648 
	C254.789948,151.838486 245.051102,172.483932 235.858536,193.355865 
	C232.448563,201.098312 232.786545,202.743744 239.787811,207.318283 
	C245.630814,211.136047 252.000870,214.162506 257.753540,218.100342 
	C275.380280,230.166260 285.196075,247.699677 291.152222,267.639496 
	C295.802368,283.207031 298.817932,298.905457 295.413727,315.355255 
	C290.238403,340.363434 274.111023,355.144653 248.738022,358.387878 
	C231.850388,360.546448 217.151978,356.191681 203.862701,346.038971 
	C197.377075,341.084045 191.020218,335.956940 184.456818,331.108429 
	C177.251343,325.785645 172.576385,325.787811 165.340866,330.943665 
	C161.682541,333.550507 158.212296,336.421356 154.390808,339.407959 
z"/>
<path fill="#000000" opacity="1.000000" stroke="none" 
	d="
M563.793091,333.717407 
	C557.059509,343.241760 548.072021,349.613068 538.265686,354.677063 
	C529.083435,359.418793 519.644043,358.357208 511.272675,352.504547 
	C504.329987,347.650787 497.985199,341.941589 491.378174,336.608093 
	C490.730133,336.084930 490.106628,335.531555 489.461639,335.004486 
	C476.983093,324.807373 472.847412,324.701202 460.166626,334.322754 
	C452.079376,340.459015 444.477539,347.248230 435.524506,352.207397 
	C410.897217,365.848724 375.578064,358.279755 361.231598,336.088165 
	C354.294220,325.357269 351.778961,313.057465 352.295959,300.715942 
	C353.271851,277.421814 359.026947,255.390121 373.137085,236.070923 
	C381.010986,225.290176 391.110107,217.402710 402.623535,211.137268 
	C416.963654,203.333557 417.283264,202.813446 410.549927,188.201614 
	C403.022400,171.866364 395.811462,155.395218 389.120087,138.701111 
	C387.701569,135.162094 386.439972,131.517380 385.558105,127.813736 
	C382.381470,114.472366 390.213989,104.548805 403.967712,103.590439 
	C417.280823,102.662773 428.745239,107.524330 439.883392,113.880730 
	C452.758850,121.228592 465.700470,128.461487 478.530304,135.887772 
	C483.311401,138.655197 487.642609,138.400803 491.978729,135.115173 
	C499.414032,129.481186 506.907318,123.923653 514.338867,118.284744 
	C522.520935,112.076370 531.232483,107.063522 541.540283,105.238777 
	C559.369141,102.082588 570.438904,115.079704 564.326111,132.118988 
	C556.665955,153.471558 546.763000,173.861572 537.489197,194.520889 
	C534.196228,201.856720 534.370056,203.532211 540.430969,208.796860 
	C549.108459,216.334305 558.020142,223.588943 565.190186,232.700394 
	C587.893677,261.551514 589.345825,292.330353 569.429443,325.030151 
	C567.696960,327.874603 565.813965,330.627319 563.793091,333.717407 
z"/>
<path fill="#000000" opacity="1.000000" stroke="none" 
	d="
M126.402130,418.578125 
	C159.655075,438.081848 194.183334,453.641663 231.473663,462.458527 
	C265.560425,470.517914 300.090973,473.044281 335.107910,471.227936 
	C380.019806,468.898285 424.103180,461.521088 467.577911,450.542206 
	C493.797058,443.920959 516.206970,430.011658 535.376099,410.897308 
	C543.514893,402.781799 551.834412,394.847107 560.100708,386.860229 
	C561.902588,385.119293 563.905212,383.634979 566.256897,382.657349 
	C573.070679,379.824738 579.006775,382.643494 581.041809,389.849823 
	C583.444336,398.357513 581.166931,406.386780 577.969238,414.156372 
	C573.794312,424.300415 567.223083,432.918121 559.807129,440.889282 
	C528.254089,474.804718 490.669128,499.090759 445.979889,511.979095 
	C423.339203,518.508667 400.221405,522.064148 376.711365,523.517212 
	C367.245850,524.102295 357.806732,525.190552 348.313293,525.462708 
	C332.316315,525.921265 316.341522,525.346924 300.401917,524.082275 
	C281.172394,522.556641 261.972870,520.675598 242.948181,517.372620 
	C197.128159,509.417786 152.702972,497.181183 111.690155,474.499786 
	C88.951202,461.924438 75.994690,442.119659 69.744499,417.461700 
	C68.207626,411.398468 66.011711,405.418152 67.588516,398.846954 
	C69.933548,389.074249 75.230789,386.371490 83.995186,391.478607 
	C90.748444,395.413818 97.090950,400.048553 103.678429,404.275085 
	C111.108635,409.042236 118.608612,413.700653 126.402130,418.578125 
z"/>
</svg>